<!--?xml version="1.0" standalone="no"?-->
              <svg id="sw-js-blob-svg" viewBox="0 0 100 100" xmlns="http://www.w3.org/2000/svg" version="1.1">
                    <defs> 
                        <linearGradient id="sw-gradient" x1="0" x2="1" y1="1" y2="0">
                            <stop id="stop1" stop-color="rgba(248, 117, 55, 1)" offset="0%"></stop>
                            <stop id="stop2" stop-color="rgba(251, 168, 31, 1)" offset="100%"></stop>
                        </linearGradient>
                    </defs>
                <path fill="url(#sw-gradient)" d="M19.6,-25.6C24.9,-19,28.1,-12.3,30.2,-4.7C32.3,2.9,33.3,11.3,30.7,19.4C28,27.5,21.9,35.3,14.4,36.9C6.8,38.6,-2,34.1,-11.3,30.8C-20.7,27.5,-30.5,25.4,-36.3,19.1C-42.1,12.9,-43.8,2.4,-40.4,-5.5C-37.1,-13.5,-28.8,-19,-21.3,-25.2C-13.7,-31.4,-6.8,-38.2,0.2,-38.5C7.2,-38.7,14.4,-32.2,19.6,-25.6Z" width="100%" height="100%" transform="translate(50 50)" stroke-width="0" style="transition: all 0.3s ease 0s;" stroke="url(#sw-gradient)"></path>
              </svg>