<?xml version="1.0" encoding="utf-8"?>
<!-- Generator: Adobe Illustrator 25.0.0, SVG Export Plug-In . SVG Version: 6.00 Build 0)  -->
<svg version="1.1" id="Ebene_1" xmlns="http://www.w3.org/2000/svg" xmlns:xlink="http://www.w3.org/1999/xlink" x="0px" y="0px"
	 viewBox="0 0 114.8 36.85" style="enable-background:new 0 0 114.8 36.85;" xml:space="preserve">
<style type="text/css">
	.st0{fill:none;}
	.st1{fill:#94C251;}
	.st2{fill:#758D9C;}
</style>
<rect x="-24.97" y="-3.58" class="st0" width="215.43" height="45.35"/>
<rect x="10.6" y="0.53" class="st0" width="12.65" height="35.35"/>
<g>
	<path class="st1" d="M48.34,21.31c-0.84-0.51-1.47-1.22-1.91-2.12c-0.44-0.9-0.66-1.92-0.66-3.06c0-1.31,0.26-2.44,0.78-3.38
		c0.52-0.94,1.23-1.65,2.15-2.14c0.92-0.49,1.96-0.73,3.14-0.73c1.08,0,2.32,0.17,3.73,0.5l-0.14,2.77h-1.14l-0.38-1.92
		c-0.15-0.12-0.4-0.23-0.76-0.34c-0.36-0.11-0.83-0.16-1.43-0.16c-0.78,0-1.47,0.19-2.06,0.58c-0.6,0.38-1.06,0.95-1.4,1.71
		c-0.34,0.76-0.5,1.67-0.5,2.75c0,0.99,0.14,1.9,0.41,2.72s0.69,1.48,1.25,1.98s1.25,0.74,2.06,0.74c0.51,0,1-0.06,1.46-0.18
		c0.46-0.12,0.81-0.29,1.06-0.49v-3.57l-2.02-0.16v-0.94h4.67v0.94l-0.93,0.14v4.3c-0.23,0.01-0.62,0.1-1.17,0.27
		c-0.55,0.17-1.08,0.3-1.57,0.4c-0.49,0.1-1.03,0.14-1.63,0.14C50.18,22.08,49.18,21.82,48.34,21.31z"/>
	<path class="st1" d="M59.56,20.77c-0.74-0.84-1.11-2.14-1.11-3.9V11l-1.14-0.19v-0.8h4.27v0.8l-1.36,0.21v6.03
		c0,1.45,0.26,2.5,0.78,3.14s1.26,0.96,2.23,0.96c0.97,0,1.7-0.34,2.18-1.02c0.49-0.68,0.73-1.67,0.73-2.98v-6.13l-1.34-0.21v-0.8
		h3.73v0.8L67.36,11v6.06c0,1.66-0.4,2.91-1.18,3.73c-0.79,0.82-1.84,1.23-3.15,1.23C61.46,22.03,60.3,21.61,59.56,20.77z"/>
	<path class="st1" d="M71.92,21.93c-0.44-0.1-0.92-0.22-1.44-0.38c-0.32-0.12-0.56-0.18-0.72-0.19l0.13-2.9h1.02l0.27,2.08
		c0.18,0.17,0.48,0.32,0.89,0.46c0.41,0.13,0.86,0.2,1.35,0.2c0.81,0,1.43-0.18,1.85-0.54c0.42-0.36,0.63-0.86,0.63-1.5
		c0-0.42-0.12-0.77-0.34-1.07c-0.23-0.3-0.53-0.55-0.91-0.77c-0.38-0.21-0.9-0.46-1.56-0.75c-0.6-0.27-1.12-0.54-1.56-0.82
		c-0.44-0.28-0.83-0.65-1.15-1.11c-0.33-0.46-0.49-1.02-0.49-1.67c0-0.59,0.16-1.11,0.47-1.58c0.31-0.46,0.77-0.83,1.36-1.1
		c0.59-0.27,1.28-0.4,2.07-0.4c0.49,0,0.93,0.04,1.3,0.11c0.38,0.08,0.81,0.18,1.29,0.3c0.21,0.07,0.39,0.12,0.54,0.14l-0.1,2.69
		h-0.98l-0.32-1.97c-0.11-0.11-0.33-0.21-0.66-0.3s-0.7-0.14-1.1-0.14c-0.74,0-1.29,0.15-1.67,0.46s-0.57,0.76-0.57,1.34
		c0,0.43,0.11,0.78,0.34,1.07s0.51,0.53,0.86,0.74c0.34,0.2,0.88,0.48,1.63,0.83c0.69,0.33,1.26,0.63,1.7,0.9
		c0.44,0.27,0.81,0.62,1.13,1.05c0.31,0.43,0.47,0.95,0.47,1.54c0,0.57-0.16,1.11-0.47,1.63c-0.31,0.52-0.79,0.95-1.44,1.29
		s-1.43,0.5-2.34,0.5C72.85,22.08,72.36,22.03,71.92,21.93z"/>
	<path class="st1" d="M84.13,11l-1.31-0.19v-0.8h8.14l0.22,2.48h-0.91l-0.46-1.55l-3.97-0.1v4.51l2.67-0.05l0.22-1.33h0.88v3.68
		h-0.88l-0.22-1.38l-2.67-0.05V21l4.51-0.16l0.85-2.02l0.94,0.29l-0.46,2.78H82.8v-0.78l1.33-0.16V11z"/>
	<path class="st1" d="M93.22,21.12l1.33-0.16V11L93.3,10.8v-0.78h2.1c0.3,0,0.7-0.02,1.22-0.06c0.53-0.04,0.95-0.06,1.25-0.06
		c1.57,0,2.69,0.25,3.35,0.76c0.67,0.51,1,1.3,1,2.39c0,0.76-0.21,1.45-0.63,2.08c-0.42,0.63-1,1.06-1.74,1.28
		c0.34,0.18,0.66,0.49,0.95,0.94c0.29,0.44,0.65,1.06,1.08,1.85c0.33,0.6,0.58,1.03,0.76,1.31c0.18,0.28,0.34,0.43,0.5,0.46
		l0.62,0.16v0.78h-2.21c-0.17,0-0.36-0.18-0.58-0.55s-0.5-0.94-0.85-1.7c-0.38-0.84-0.72-1.51-1-2.01c-0.28-0.5-0.56-0.81-0.84-0.95
		c-1.14,0-1.82-0.01-2.03-0.02v4.29l1.58,0.16v0.78h-4.62V21.12z M99.78,15.15c0.39-0.45,0.59-1.11,0.59-2c0-0.78-0.2-1.37-0.6-1.78
		c-0.4-0.41-1.09-0.62-2.07-0.62c-0.34,0-0.68,0.02-1.02,0.06c-0.21,0.02-0.35,0.03-0.42,0.03v4.96c0.16,0.01,0.49,0.02,0.99,0.02
		h0.91C98.84,15.82,99.38,15.6,99.78,15.15z"/>
	<path class="st1" d="M105.84,11l-1.25-0.19v-0.8h2.13c0.38,0,0.76-0.02,1.14-0.05c0.58-0.04,1.12-0.06,1.63-0.06
		c1.55,0.01,2.64,0.3,3.28,0.86c0.64,0.57,0.96,1.42,0.96,2.56c0,0.85-0.2,1.59-0.59,2.22c-0.4,0.63-0.94,1.11-1.64,1.44
		c-0.7,0.33-1.5,0.5-2.41,0.5c-0.31,0-0.62-0.01-0.94-0.02c-0.32-0.02-0.52-0.03-0.59-0.04v3.52l2.19,0.18v0.78h-5.23v-0.78
		l1.33-0.16V11z M109.09,16.62c0.84,0,1.53-0.26,2.06-0.77c0.53-0.51,0.79-1.35,0.79-2.51c0-0.92-0.23-1.58-0.69-1.98
		c-0.46-0.4-1.17-0.6-2.14-0.6c-0.34,0-0.7,0.02-1.09,0.06c-0.23,0.02-0.39,0.03-0.46,0.03v5.68
		C107.85,16.59,108.36,16.62,109.09,16.62z"/>
</g>
<g>
	<path class="st2" d="M76.71,32.36l-0.16,0.2c-0.45,0.52-1.11,0.79-1.97,0.79c-0.77,0-1.37-0.25-1.81-0.76
		c-0.44-0.51-0.66-1.23-0.67-2.16v-1.4c0-1,0.2-1.74,0.6-2.24c0.4-0.5,1-0.74,1.79-0.74c0.68,0,1.21,0.19,1.59,0.56
		c0.38,0.38,0.59,0.91,0.63,1.61h-0.89c-0.04-0.44-0.16-0.79-0.37-1.04c-0.21-0.25-0.53-0.37-0.95-0.37c-0.51,0-0.89,0.17-1.12,0.5
		c-0.24,0.33-0.36,0.87-0.37,1.6v1.45c0,0.72,0.14,1.27,0.41,1.65c0.27,0.38,0.67,0.57,1.18,0.57c0.48,0,0.85-0.12,1.1-0.35
		l0.13-0.12v-1.63h-1.3V29.7h2.19V32.36z"/>
	<path class="st2" d="M82.41,26.13v5.05c-0.01,0.67-0.2,1.2-0.59,1.58s-0.92,0.57-1.61,0.57c-0.7,0-1.24-0.19-1.61-0.56
		c-0.37-0.37-0.56-0.9-0.57-1.59v-5.05h0.89v5.02c0,0.48,0.1,0.83,0.31,1.07c0.2,0.24,0.53,0.35,0.98,0.35
		c0.46,0,0.79-0.12,0.99-0.35c0.2-0.24,0.31-0.59,0.31-1.07v-5.02H82.41z"/>
	<path class="st2" d="M86.89,31.44c0-0.35-0.1-0.63-0.29-0.82s-0.54-0.37-1.04-0.55s-0.88-0.37-1.15-0.56
		c-0.27-0.2-0.46-0.42-0.6-0.67c-0.13-0.25-0.2-0.54-0.2-0.87c0-0.56,0.19-1.03,0.56-1.39s0.87-0.55,1.48-0.55
		c0.42,0,0.79,0.09,1.11,0.28c0.33,0.19,0.58,0.44,0.75,0.78c0.18,0.33,0.26,0.7,0.26,1.09h-0.9c0-0.44-0.11-0.78-0.32-1.02
		s-0.52-0.36-0.91-0.36c-0.36,0-0.64,0.1-0.84,0.3s-0.3,0.49-0.3,0.85c0,0.3,0.11,0.55,0.32,0.75s0.55,0.38,1,0.54
		c0.7,0.23,1.2,0.52,1.5,0.86c0.3,0.34,0.45,0.78,0.45,1.33c0,0.58-0.19,1.04-0.56,1.38c-0.37,0.35-0.88,0.52-1.53,0.52
		c-0.41,0-0.8-0.09-1.15-0.27c-0.35-0.18-0.62-0.43-0.83-0.76c-0.2-0.33-0.3-0.7-0.3-1.12h0.9c0,0.44,0.12,0.78,0.37,1.03
		c0.25,0.24,0.58,0.37,1,0.37c0.39,0,0.69-0.1,0.89-0.3S86.89,31.79,86.89,31.44z"/>
	<path class="st2" d="M95.71,32.36l-0.16,0.2c-0.45,0.52-1.11,0.79-1.97,0.79c-0.77,0-1.37-0.25-1.81-0.76
		c-0.44-0.51-0.66-1.23-0.67-2.16v-1.4c0-1,0.2-1.74,0.6-2.24c0.4-0.5,1-0.74,1.79-0.74c0.68,0,1.21,0.19,1.59,0.56
		c0.38,0.38,0.59,0.91,0.63,1.61h-0.89c-0.04-0.44-0.16-0.79-0.37-1.04c-0.21-0.25-0.53-0.37-0.95-0.37c-0.51,0-0.89,0.17-1.12,0.5
		c-0.24,0.33-0.36,0.87-0.37,1.6v1.45c0,0.72,0.14,1.27,0.41,1.65c0.27,0.38,0.67,0.57,1.18,0.57c0.48,0,0.85-0.12,1.1-0.35
		l0.13-0.12v-1.63h-1.3V29.7h2.19V32.36z"/>
	<path class="st2" d="M99.23,28.77c-0.12-0.02-0.25-0.03-0.39-0.03c-0.44,0-0.75,0.24-0.93,0.73v3.78h-0.86v-5.28h0.84l0.01,0.54
		c0.23-0.42,0.56-0.63,0.98-0.63c0.14,0,0.25,0.02,0.34,0.07L99.23,28.77z"/>
	<path class="st2" d="M99.81,30.35c0-0.77,0.19-1.38,0.56-1.82c0.37-0.45,0.87-0.67,1.48-0.67s1.1,0.22,1.48,0.65
		c0.37,0.44,0.56,1.03,0.57,1.78v0.56c0,0.76-0.19,1.37-0.56,1.82s-0.87,0.67-1.48,0.67c-0.61,0-1.1-0.22-1.47-0.65
		c-0.37-0.43-0.56-1.02-0.57-1.76V30.35z M100.67,30.85c0,0.54,0.11,0.97,0.32,1.28c0.21,0.31,0.5,0.47,0.86,0.47
		c0.76,0,1.15-0.55,1.18-1.65v-0.6c0-0.54-0.11-0.97-0.32-1.28c-0.21-0.31-0.5-0.47-0.86-0.47c-0.35,0-0.64,0.16-0.85,0.47
		c-0.21,0.31-0.32,0.74-0.32,1.28V30.85z"/>
	<path class="st2" d="M107.7,32.78c-0.29,0.37-0.7,0.56-1.25,0.56c-0.48,0-0.84-0.17-1.08-0.5c-0.24-0.33-0.37-0.81-0.37-1.44v-3.44
		h0.86v3.38c0,0.82,0.25,1.24,0.74,1.24c0.52,0,0.89-0.23,1.08-0.7v-3.91h0.86v5.28h-0.82L107.7,32.78z"/>
	<path class="st2" d="M113.66,30.85c0,0.84-0.15,1.46-0.45,1.87c-0.3,0.41-0.73,0.62-1.28,0.62c-0.53,0-0.94-0.2-1.23-0.6v2.53
		h-0.86v-7.31h0.78l0.04,0.59c0.29-0.46,0.7-0.68,1.25-0.68c0.58,0,1.01,0.2,1.3,0.61s0.43,1.01,0.44,1.81V30.85z M112.8,30.36
		c0-0.59-0.09-1.03-0.27-1.31c-0.18-0.28-0.48-0.42-0.88-0.42c-0.41,0-0.73,0.21-0.94,0.62v2.75c0.21,0.4,0.53,0.61,0.95,0.61
		c0.39,0,0.68-0.14,0.86-0.42c0.18-0.28,0.28-0.71,0.28-1.29V30.36z"/>
</g>
<g>
	<path class="st2" d="M9.1,18.75c-0.01,0.2-0.1,0.41-0.27,0.52c-0.66,0.44-1.31,0.89-1.97,1.34c-0.16,0.11-0.32,0.22-0.48,0.33
		c-0.59,0.42-1.18,0.84-1.76,1.26C4.5,22.3,4.32,22.29,4.2,22.2c-0.55-0.43-1.09-0.86-1.62-1.3c-0.13-0.11-0.26-0.21-0.39-0.32
		c-0.47-0.4-0.94-0.8-1.4-1.21c-0.12-0.11-0.16-0.29-0.16-0.45c0.01-0.79,0.04-1.58,0.08-2.37c0.01-0.2,0.02-0.4,0.04-0.6
		c0.05-0.77,0.11-1.54,0.19-2.31c0.02-0.17,0.09-0.34,0.21-0.46c0.5-0.47,1.01-0.92,1.52-1.37c0.14-0.12,0.28-0.24,0.41-0.36
		c0.56-0.48,1.13-0.95,1.71-1.41c0.11-0.09,0.29-0.14,0.42-0.07c0.54,0.32,1.07,0.64,1.61,0.95c0.15,0.09,0.29,0.17,0.44,0.26
		c0.61,0.36,1.22,0.72,1.83,1.08c0.15,0.1,0.23,0.3,0.22,0.47c-0.05,0.88-0.1,1.75-0.14,2.63c-0.01,0.23-0.02,0.46-0.02,0.68
		C9.13,16.95,9.11,17.85,9.1,18.75"/>
	<path class="st1" d="M21.7,18.67c-0.01,0.22-0.13,0.44-0.32,0.56c-0.82,0.48-1.64,0.96-2.46,1.44c-0.21,0.12-0.41,0.24-0.62,0.37
		c-0.8,0.47-1.59,0.94-2.39,1.41c-0.18,0.1-0.42,0.1-0.6-0.01c-0.77-0.47-1.54-0.95-2.31-1.43c-0.19-0.12-0.38-0.24-0.58-0.36
		c-0.73-0.46-1.45-0.92-2.17-1.39c-0.17-0.11-0.26-0.33-0.27-0.52c0.01-0.91,0.03-1.82,0.06-2.73c0.01-0.23,0.02-0.46,0.02-0.69
		c0.03-0.89,0.08-1.77,0.13-2.65c0.02-0.2,0.13-0.4,0.3-0.52c0.73-0.49,1.47-0.97,2.21-1.44c0.19-0.12,0.39-0.24,0.58-0.37
		c0.76-0.48,1.53-0.95,2.31-1.41c0.17-0.1,0.4-0.12,0.58-0.03c0.76,0.4,1.52,0.8,2.27,1.21c0.2,0.11,0.4,0.21,0.6,0.32
		c0.8,0.43,1.59,0.87,2.38,1.31c0.18,0.11,0.3,0.31,0.31,0.52c-0.01,0.93-0.01,1.86-0.01,2.79c0,0.24,0,0.49,0,0.73
		C21.71,16.75,21.7,17.71,21.7,18.67"/>
	<path class="st1" d="M34.64,18.73c0,0.2-0.11,0.42-0.28,0.53c-0.74,0.47-1.49,0.94-2.24,1.4c-0.2,0.12-0.39,0.24-0.59,0.37
		c-0.79,0.48-1.57,0.96-2.36,1.44c-0.18,0.1-0.43,0.11-0.61,0c-0.81-0.48-1.62-0.95-2.42-1.42c-0.21-0.12-0.42-0.25-0.63-0.37
		c-0.82-0.48-1.65-0.96-2.47-1.45c-0.19-0.11-0.31-0.34-0.32-0.55c0-0.96,0-1.92,0-2.88c0-0.24,0-0.49,0-0.73c0-0.93,0-1.86,0-2.79
		c0.01-0.21,0.13-0.42,0.31-0.52c0.8-0.45,1.6-0.89,2.4-1.33c0.2-0.11,0.4-0.22,0.61-0.33c0.77-0.42,1.54-0.83,2.32-1.23
		c0.18-0.09,0.42-0.07,0.59,0.02c0.78,0.46,1.57,0.92,2.34,1.39c0.2,0.12,0.39,0.24,0.59,0.36c0.76,0.47,1.52,0.95,2.27,1.43
		c0.17,0.11,0.29,0.32,0.3,0.52c0.05,0.89,0.09,1.79,0.12,2.68c0.01,0.23,0.01,0.47,0.02,0.7C34.61,16.89,34.63,17.81,34.64,18.73"
		/>
	<path class="st1" d="M15.35,7.75c-0.02,0.2-0.15,0.39-0.31,0.49c-0.77,0.46-1.53,0.92-2.28,1.4c-0.19,0.12-0.38,0.24-0.57,0.36
		c-0.73,0.47-1.46,0.95-2.19,1.43c-0.15,0.1-0.36,0.13-0.52,0.04c-0.61-0.35-1.22-0.7-1.84-1.05c-0.15-0.08-0.29-0.17-0.44-0.25
		C6.66,9.87,6.12,9.56,5.58,9.25c-0.13-0.08-0.17-0.26-0.15-0.4c0.11-0.73,0.22-1.47,0.35-2.2c0.03-0.18,0.06-0.36,0.1-0.54
		C6.01,5.44,6.15,4.77,6.3,4.1c0.04-0.17,0.16-0.32,0.29-0.42C7.21,3.24,7.83,2.8,8.47,2.37c0.16-0.11,0.33-0.22,0.5-0.33
		c0.65-0.43,1.31-0.84,1.98-1.25c0.14-0.08,0.32-0.13,0.47-0.08c0.58,0.2,1.16,0.4,1.74,0.62c0.16,0.06,0.31,0.12,0.47,0.18
		c0.64,0.25,1.28,0.5,1.92,0.76c0.14,0.06,0.24,0.21,0.23,0.37c-0.07,0.72-0.14,1.44-0.2,2.16c-0.02,0.19-0.03,0.39-0.05,0.58
		C15.46,6.17,15.41,6.96,15.35,7.75"/>
	<path class="st1" d="M21.77,33.2c0,0.19-0.13,0.38-0.29,0.46c-0.75,0.39-1.51,0.76-2.27,1.13c-0.19,0.09-0.38,0.18-0.57,0.27
		c-0.71,0.34-1.43,0.68-2.15,1c-0.17,0.07-0.39,0.05-0.56-0.04c-0.75-0.42-1.5-0.85-2.24-1.3c-0.19-0.11-0.38-0.23-0.57-0.34
		c-0.73-0.45-1.46-0.9-2.18-1.37c-0.16-0.11-0.28-0.29-0.31-0.48c-0.09-0.81-0.17-1.61-0.23-2.42c-0.02-0.21-0.04-0.43-0.05-0.64
		c-0.07-0.86-0.12-1.72-0.17-2.58c-0.01-0.19,0.08-0.39,0.24-0.49c0.7-0.42,1.4-0.83,2.1-1.25c0.19-0.11,0.37-0.22,0.56-0.33
		c0.75-0.45,1.51-0.89,2.26-1.34c0.18-0.1,0.42-0.09,0.6,0.01c0.8,0.49,1.6,0.97,2.41,1.45c0.21,0.12,0.42,0.25,0.62,0.37
		c0.81,0.48,1.63,0.95,2.44,1.42c0.18,0.11,0.31,0.32,0.31,0.53c0.01,0.9,0.01,1.81,0.02,2.71c0,0.22,0,0.45,0.01,0.67
		C21.75,31.51,21.76,32.36,21.77,33.2"/>
</g>
</svg>
